<mxfile host="drawio-plugin" modified="2023-03-09T10:48:30.512Z" agent="5.0 (X11; Linux x86_64) AppleWebKit/537.36 (KHTML, like Gecko) Chrome/104.0.5112.102 Safari/537.36" etag="rMGwbWcRxvVbz79oaPdO" version="20.5.3" type="embed"><diagram id="du_DZZ9CFMzZslSAI9vT" name="Page-1"><mxGraphModel dx="2182" dy="225" grid="1" gridSize="10" guides="1" tooltips="1" connect="1" arrows="1" fold="1" page="1" pageScale="1" pageWidth="827" pageHeight="1169" background="#F1FAEE" math="0" shadow="0"><root><mxCell id="0"/><mxCell id="1" parent="0"/><mxCell id="dvN9DbvPJK4XcVbZUU45-40" style="edgeStyle=orthogonalEdgeStyle;rounded=0;orthogonalLoop=1;jettySize=auto;html=1;entryX=1;entryY=0.5;entryDx=0;entryDy=0;labelBackgroundColor=#F1FAEE;strokeColor=#457B9D;fontColor=#1D3557;" parent="1" source="dvN9DbvPJK4XcVbZUU45-19" target="dvN9DbvPJK4XcVbZUU45-23" edge="1"><mxGeometry relative="1" as="geometry"/></mxCell><mxCell id="dvN9DbvPJK4XcVbZUU45-19" value="(Dimension) Commerces" style="swimlane;fontStyle=0;childLayout=stackLayout;horizontal=1;startSize=26;fillColor=#A8DADC;horizontalStack=0;resizeParent=1;resizeParentMax=0;resizeLast=0;collapsible=1;marginBottom=0;strokeColor=#457B9D;fontColor=#1D3557;" parent="1" vertex="1"><mxGeometry x="40" y="516" width="160" height="130" as="geometry"/></mxCell><mxCell id="dvN9DbvPJK4XcVbZUU45-50" value="id : PK" style="text;strokeColor=none;fillColor=none;align=left;verticalAlign=top;spacingLeft=4;spacingRight=4;overflow=hidden;rotatable=0;points=[[0,0.5],[1,0.5]];portConstraint=eastwest;fontColor=#1D3557;" parent="dvN9DbvPJK4XcVbZUU45-19" vertex="1"><mxGeometry y="26" width="160" height="26" as="geometry"/></mxCell><mxCell id="dvN9DbvPJK4XcVbZUU45-22" value="idLocalisation" style="text;strokeColor=none;fillColor=none;align=left;verticalAlign=top;spacingLeft=4;spacingRight=4;overflow=hidden;rotatable=0;points=[[0,0.5],[1,0.5]];portConstraint=eastwest;fontColor=#1D3557;" parent="dvN9DbvPJK4XcVbZUU45-19" vertex="1"><mxGeometry y="52" width="160" height="26" as="geometry"/></mxCell><mxCell id="dvN9DbvPJK4XcVbZUU45-49" value="catégorie" style="text;strokeColor=none;fillColor=none;align=left;verticalAlign=top;spacingLeft=4;spacingRight=4;overflow=hidden;rotatable=0;points=[[0,0.5],[1,0.5]];portConstraint=eastwest;fontColor=#1D3557;" parent="dvN9DbvPJK4XcVbZUU45-19" vertex="1"><mxGeometry y="78" width="160" height="26" as="geometry"/></mxCell><mxCell id="dvN9DbvPJK4XcVbZUU45-51" value="autresAttributs" style="text;strokeColor=none;fillColor=none;align=left;verticalAlign=top;spacingLeft=4;spacingRight=4;overflow=hidden;rotatable=0;points=[[0,0.5],[1,0.5]];portConstraint=eastwest;fontColor=#1D3557;" parent="dvN9DbvPJK4XcVbZUU45-19" vertex="1"><mxGeometry y="104" width="160" height="26" as="geometry"/></mxCell><mxCell id="dvN9DbvPJK4XcVbZUU45-23" value="(dimension) Localisation" style="swimlane;fontStyle=0;childLayout=stackLayout;horizontal=1;startSize=26;fillColor=#A8DADC;horizontalStack=0;resizeParent=1;resizeParentMax=0;resizeLast=0;collapsible=1;marginBottom=0;strokeColor=#457B9D;fontColor=#1D3557;" parent="1" vertex="1"><mxGeometry x="-180" y="542" width="140" height="78" as="geometry"/></mxCell><mxCell id="dvN9DbvPJK4XcVbZUU45-26" value="id : PK" style="text;strokeColor=none;fillColor=none;align=left;verticalAlign=top;spacingLeft=4;spacingRight=4;overflow=hidden;rotatable=0;points=[[0,0.5],[1,0.5]];portConstraint=eastwest;fontColor=#1D3557;" parent="dvN9DbvPJK4XcVbZUU45-23" vertex="1"><mxGeometry y="26" width="140" height="26" as="geometry"/></mxCell><mxCell id="TTpY-0HQ-mND78AJCY86-15" value="nomLocalisation" style="text;strokeColor=none;fillColor=none;align=left;verticalAlign=top;spacingLeft=4;spacingRight=4;overflow=hidden;rotatable=0;points=[[0,0.5],[1,0.5]];portConstraint=eastwest;fontColor=#1D3557;" parent="dvN9DbvPJK4XcVbZUU45-23" vertex="1"><mxGeometry y="52" width="140" height="26" as="geometry"/></mxCell><mxCell id="dvN9DbvPJK4XcVbZUU45-27" value="(dimension) Temporalité" style="swimlane;fontStyle=0;childLayout=stackLayout;horizontal=1;startSize=26;fillColor=#A8DADC;horizontalStack=0;resizeParent=1;resizeParentMax=0;resizeLast=0;collapsible=1;marginBottom=0;strokeColor=#457B9D;fontColor=#1D3557;" parent="1" vertex="1"><mxGeometry x="680" y="640" width="140" height="78" as="geometry"/></mxCell><mxCell id="dvN9DbvPJK4XcVbZUU45-30" value="id : PK" style="text;strokeColor=none;fillColor=none;align=left;verticalAlign=top;spacingLeft=4;spacingRight=4;overflow=hidden;rotatable=0;points=[[0,0.5],[1,0.5]];portConstraint=eastwest;fontColor=#1D3557;" parent="dvN9DbvPJK4XcVbZUU45-27" vertex="1"><mxGeometry y="26" width="140" height="26" as="geometry"/></mxCell><mxCell id="TTpY-0HQ-mND78AJCY86-68" value="date" style="text;strokeColor=none;fillColor=none;align=left;verticalAlign=top;spacingLeft=4;spacingRight=4;overflow=hidden;rotatable=0;points=[[0,0.5],[1,0.5]];portConstraint=eastwest;fontColor=#1D3557;" parent="dvN9DbvPJK4XcVbZUU45-27" vertex="1"><mxGeometry y="52" width="140" height="26" as="geometry"/></mxCell><mxCell id="dvN9DbvPJK4XcVbZUU45-31" value="(dimension) Utilisateurs" style="swimlane;fontStyle=0;childLayout=stackLayout;horizontal=1;startSize=26;fillColor=#A8DADC;horizontalStack=0;resizeParent=1;resizeParentMax=0;resizeLast=0;collapsible=1;marginBottom=0;strokeColor=#457B9D;fontColor=#1D3557;" parent="1" vertex="1"><mxGeometry x="680" y="360" width="140" height="156" as="geometry"/></mxCell><mxCell id="dvN9DbvPJK4XcVbZUU45-34" value="id : PK&#10;" style="text;strokeColor=none;fillColor=none;align=left;verticalAlign=top;spacingLeft=4;spacingRight=4;overflow=hidden;rotatable=0;points=[[0,0.5],[1,0.5]];portConstraint=eastwest;fontColor=#1D3557;" parent="dvN9DbvPJK4XcVbZUU45-31" vertex="1"><mxGeometry y="26" width="140" height="26" as="geometry"/></mxCell><mxCell id="TTpY-0HQ-mND78AJCY86-21" value="prenom" style="text;strokeColor=none;fillColor=none;align=left;verticalAlign=top;spacingLeft=4;spacingRight=4;overflow=hidden;rotatable=0;points=[[0,0.5],[1,0.5]];portConstraint=eastwest;fontColor=#1D3557;" parent="dvN9DbvPJK4XcVbZUU45-31" vertex="1"><mxGeometry y="52" width="140" height="26" as="geometry"/></mxCell><mxCell id="TTpY-0HQ-mND78AJCY86-22" value="amis" style="text;strokeColor=none;fillColor=none;align=left;verticalAlign=top;spacingLeft=4;spacingRight=4;overflow=hidden;rotatable=0;points=[[0,0.5],[1,0.5]];portConstraint=eastwest;fontColor=#1D3557;" parent="dvN9DbvPJK4XcVbZUU45-31" vertex="1"><mxGeometry y="78" width="140" height="26" as="geometry"/></mxCell><mxCell id="TTpY-0HQ-mND78AJCY86-23" value="dateCreation" style="text;strokeColor=none;fillColor=none;align=left;verticalAlign=top;spacingLeft=4;spacingRight=4;overflow=hidden;rotatable=0;points=[[0,0.5],[1,0.5]];portConstraint=eastwest;fontColor=#1D3557;" parent="dvN9DbvPJK4XcVbZUU45-31" vertex="1"><mxGeometry y="104" width="140" height="26" as="geometry"/></mxCell><mxCell id="TTpY-0HQ-mND78AJCY86-25" value="statistiques" style="text;strokeColor=none;fillColor=none;align=left;verticalAlign=top;spacingLeft=4;spacingRight=4;overflow=hidden;rotatable=0;points=[[0,0.5],[1,0.5]];portConstraint=eastwest;fontColor=#1D3557;" parent="dvN9DbvPJK4XcVbZUU45-31" vertex="1"><mxGeometry y="130" width="140" height="26" as="geometry"/></mxCell><mxCell id="dvN9DbvPJK4XcVbZUU45-39" style="edgeStyle=orthogonalEdgeStyle;rounded=0;orthogonalLoop=1;jettySize=auto;html=1;exitX=0;exitY=0.5;exitDx=0;exitDy=0;entryX=1;entryY=0.5;entryDx=0;entryDy=0;labelBackgroundColor=#F1FAEE;strokeColor=#457B9D;fontColor=#1D3557;" parent="1" edge="1"><mxGeometry relative="1" as="geometry"><mxPoint x="320" y="556" as="sourcePoint"/><mxPoint x="200" y="556" as="targetPoint"/></mxGeometry></mxCell><mxCell id="TTpY-0HQ-mND78AJCY86-2" value="(Fait) Avis" style="swimlane;fontStyle=1;align=center;verticalAlign=top;childLayout=stackLayout;horizontal=1;startSize=26;horizontalStack=0;resizeParent=1;resizeParentMax=0;resizeLast=0;collapsible=1;marginBottom=0;fillColor=#A8DADC;strokeColor=#457B9D;fontColor=#1D3557;" parent="1" vertex="1"><mxGeometry x="320" y="464" width="160" height="164" as="geometry"/></mxCell><mxCell id="TTpY-0HQ-mND78AJCY86-3" value="id : PK" style="text;strokeColor=none;fillColor=none;align=left;verticalAlign=top;spacingLeft=4;spacingRight=4;overflow=hidden;rotatable=0;points=[[0,0.5],[1,0.5]];portConstraint=eastwest;fontColor=#1D3557;" parent="TTpY-0HQ-mND78AJCY86-2" vertex="1"><mxGeometry y="26" width="160" height="26" as="geometry"/></mxCell><mxCell id="TTpY-0HQ-mND78AJCY86-5" value="idUtilisateur : FK" style="text;strokeColor=none;fillColor=none;align=left;verticalAlign=top;spacingLeft=4;spacingRight=4;overflow=hidden;rotatable=0;points=[[0,0.5],[1,0.5]];portConstraint=eastwest;fontColor=#1D3557;" parent="TTpY-0HQ-mND78AJCY86-2" vertex="1"><mxGeometry y="52" width="160" height="26" as="geometry"/></mxCell><mxCell id="TTpY-0HQ-mND78AJCY86-6" value="idCommerce : FK" style="text;strokeColor=none;fillColor=none;align=left;verticalAlign=top;spacingLeft=4;spacingRight=4;overflow=hidden;rotatable=0;points=[[0,0.5],[1,0.5]];portConstraint=eastwest;fontColor=#1D3557;" parent="TTpY-0HQ-mND78AJCY86-2" vertex="1"><mxGeometry y="78" width="160" height="26" as="geometry"/></mxCell><mxCell id="TTpY-0HQ-mND78AJCY86-17" value="idDate : FK" style="text;strokeColor=none;fillColor=none;align=left;verticalAlign=top;spacingLeft=4;spacingRight=4;overflow=hidden;rotatable=0;points=[[0,0.5],[1,0.5]];portConstraint=eastwest;fontColor=#1D3557;" parent="TTpY-0HQ-mND78AJCY86-2" vertex="1"><mxGeometry y="104" width="160" height="26" as="geometry"/></mxCell><mxCell id="TTpY-0HQ-mND78AJCY86-4" value="" style="line;strokeWidth=1;fillColor=none;align=left;verticalAlign=middle;spacingTop=-1;spacingLeft=3;spacingRight=3;rotatable=0;labelPosition=right;points=[];portConstraint=eastwest;strokeColor=#457B9D;labelBackgroundColor=#F1FAEE;fontColor=#1D3557;" parent="TTpY-0HQ-mND78AJCY86-2" vertex="1"><mxGeometry y="130" width="160" height="8" as="geometry"/></mxCell><mxCell id="TTpY-0HQ-mND78AJCY86-7" value="Note" style="text;strokeColor=none;fillColor=none;align=left;verticalAlign=top;spacingLeft=4;spacingRight=4;overflow=hidden;rotatable=0;points=[[0,0.5],[1,0.5]];portConstraint=eastwest;fontColor=#1D3557;" parent="TTpY-0HQ-mND78AJCY86-2" vertex="1"><mxGeometry y="138" width="160" height="26" as="geometry"/></mxCell><mxCell id="TTpY-0HQ-mND78AJCY86-18" style="edgeStyle=orthogonalEdgeStyle;rounded=0;orthogonalLoop=1;jettySize=auto;html=1;entryX=0;entryY=0.5;entryDx=0;entryDy=0;labelBackgroundColor=#F1FAEE;strokeColor=#457B9D;fontColor=#1D3557;" parent="1" source="TTpY-0HQ-mND78AJCY86-17" target="dvN9DbvPJK4XcVbZUU45-30" edge="1"><mxGeometry relative="1" as="geometry"/></mxCell><mxCell id="TTpY-0HQ-mND78AJCY86-29" value="(Fait) Checkins" style="swimlane;fontStyle=1;align=center;verticalAlign=top;childLayout=stackLayout;horizontal=1;startSize=26;horizontalStack=0;resizeParent=1;resizeParentMax=0;resizeLast=0;collapsible=1;marginBottom=0;fillColor=#A8DADC;strokeColor=#457B9D;fontColor=#1D3557;" parent="1" vertex="1"><mxGeometry x="320" y="250" width="160" height="138" as="geometry"/></mxCell><mxCell id="TTpY-0HQ-mND78AJCY86-30" value="id : PK" style="text;strokeColor=none;fillColor=none;align=left;verticalAlign=top;spacingLeft=4;spacingRight=4;overflow=hidden;rotatable=0;points=[[0,0.5],[1,0.5]];portConstraint=eastwest;fontColor=#1D3557;" parent="TTpY-0HQ-mND78AJCY86-29" vertex="1"><mxGeometry y="26" width="160" height="26" as="geometry"/></mxCell><mxCell id="TTpY-0HQ-mND78AJCY86-56" value="idCommerce : FK" style="text;strokeColor=none;fillColor=none;align=left;verticalAlign=top;spacingLeft=4;spacingRight=4;overflow=hidden;rotatable=0;points=[[0,0.5],[1,0.5]];portConstraint=eastwest;fontColor=#1D3557;" parent="TTpY-0HQ-mND78AJCY86-29" vertex="1"><mxGeometry y="52" width="160" height="26" as="geometry"/></mxCell><mxCell id="TTpY-0HQ-mND78AJCY86-45" value="idDate : FK" style="text;strokeColor=none;fillColor=none;align=left;verticalAlign=top;spacingLeft=4;spacingRight=4;overflow=hidden;rotatable=0;points=[[0,0.5],[1,0.5]];portConstraint=eastwest;fontColor=#1D3557;" parent="TTpY-0HQ-mND78AJCY86-29" vertex="1"><mxGeometry y="78" width="160" height="26" as="geometry"/></mxCell><mxCell id="TTpY-0HQ-mND78AJCY86-34" value="" style="line;strokeWidth=1;fillColor=none;align=left;verticalAlign=middle;spacingTop=-1;spacingLeft=3;spacingRight=3;rotatable=0;labelPosition=right;points=[];portConstraint=eastwest;strokeColor=#457B9D;labelBackgroundColor=#F1FAEE;fontColor=#1D3557;" parent="TTpY-0HQ-mND78AJCY86-29" vertex="1"><mxGeometry y="104" width="160" height="8" as="geometry"/></mxCell><mxCell id="TTpY-0HQ-mND78AJCY86-43" value="nbVisite" style="text;strokeColor=none;fillColor=none;align=left;verticalAlign=top;spacingLeft=4;spacingRight=4;overflow=hidden;rotatable=0;points=[[0,0.5],[1,0.5]];portConstraint=eastwest;fontColor=#1D3557;" parent="TTpY-0HQ-mND78AJCY86-29" vertex="1"><mxGeometry y="112" width="160" height="26" as="geometry"/></mxCell><mxCell id="TTpY-0HQ-mND78AJCY86-46" style="edgeStyle=orthogonalEdgeStyle;rounded=0;orthogonalLoop=1;jettySize=auto;html=1;entryX=1;entryY=0.5;entryDx=0;entryDy=0;exitX=0;exitY=0.5;exitDx=0;exitDy=0;labelBackgroundColor=#F1FAEE;strokeColor=#457B9D;fontColor=#1D3557;" parent="1" edge="1"><mxGeometry relative="1" as="geometry"><mxPoint x="320" y="342" as="sourcePoint"/><mxPoint x="200" y="556" as="targetPoint"/><Array as="points"><mxPoint x="260" y="341"/><mxPoint x="260" y="556"/></Array></mxGeometry></mxCell><mxCell id="TTpY-0HQ-mND78AJCY86-59" style="edgeStyle=orthogonalEdgeStyle;rounded=0;orthogonalLoop=1;jettySize=auto;html=1;exitX=1;exitY=0.5;exitDx=0;exitDy=0;entryX=0;entryY=0.5;entryDx=0;entryDy=0;labelBackgroundColor=#F1FAEE;strokeColor=#457B9D;fontColor=#1D3557;" parent="1" source="TTpY-0HQ-mND78AJCY86-45" target="dvN9DbvPJK4XcVbZUU45-30" edge="1"><mxGeometry relative="1" as="geometry"/></mxCell><mxCell id="TTpY-0HQ-mND78AJCY86-67" style="edgeStyle=orthogonalEdgeStyle;rounded=0;orthogonalLoop=1;jettySize=auto;html=1;entryX=0;entryY=0.5;entryDx=0;entryDy=0;labelBackgroundColor=#F1FAEE;strokeColor=#457B9D;fontColor=#1D3557;" parent="1" source="TTpY-0HQ-mND78AJCY86-5" target="dvN9DbvPJK4XcVbZUU45-34" edge="1"><mxGeometry relative="1" as="geometry"><Array as="points"><mxPoint x="640" y="529"/><mxPoint x="640" y="399"/></Array></mxGeometry></mxCell></root></mxGraphModel></diagram></mxfile>